<svg xmlns="http://www.w3.org/2000/svg" xml:space="preserve" style="fill-rule:evenodd;clip-rule:evenodd" viewBox="0 0 3236 500"><path d="M245 0c135.31 0 245 109.69 245 245S380.31 490 245 490c-44.039 0-85.364-11.62-121.077-31.96L8.932 488.94a5 5 0 0 1-6.126-6.127l30.667-114.118C12.197 332.39 0 290.119 0 245 0 109.69 109.69 0 245 0Z" style="fill:#fff;stroke:#333;stroke-width:1px" transform="translate(5 5)"/><path d="M244 45c110.457 0 200 89.543 200 200s-89.543 200-200 200c-39.6 0-76.512-11.509-107.574-31.365l-74.505 20.022a5 5 0 0 1-6.126-6.126l19.975-74.326C55.666 322.013 44 284.869 44 245c0-110.457 89.543-200 200-200Z" style="fill:#333" transform="translate(5 5)"/><g transform="translate(109 101)"><path d="m68.561 84.26 52.176 97.98a8 8 0 0 1-7.061 11.76H9.324a8 8 0 0 1-7.061-11.76l52.176-97.98a8 8 0 0 1 14.122 0Z" style="fill:#fff" transform="rotate(90 61.5 132.5)"/><circle cx="202.5" cy="65.5" r="65.5" style="fill:#fff"/><path d="m157.652 290.026-40.358 27.972a5 5 0 0 1-7.637-5.548l14.132-47.027a5.002 5.002 0 0 0-1.76-5.418l-39.075-29.739a4.999 4.999 0 0 1 2.917-8.977l49.092-1.092a5 5 0 0 0 4.609-3.348l16.208-46.352a5 5 0 0 1 9.44 0l16.208 46.352a5.002 5.002 0 0 0 4.609 3.348l49.092 1.092a4.999 4.999 0 0 1 2.917 8.977l-39.075 29.739a5.002 5.002 0 0 0-1.76 5.418l14.132 47.027a5 5 0 0 1-7.637 5.548l-40.358-27.972a4.997 4.997 0 0 0-5.696 0Z" style="fill:#fff"/></g><path d="M0 324V6h130.5c19.938 0 37.534 4.013 52.789 12.039 15.255 8.025 27.188 19.307 35.797 33.844C227.695 66.42 232 83.683 232 103.671v6.36c0 19.686-4.456 36.873-13.367 51.562-8.912 14.688-20.995 26.046-36.25 34.071-15.255 8.026-32.55 12.039-51.883 12.039H59.813V324H0Zm59.813-170.811h64.796c14.198 0 25.677-3.938 34.438-11.812 8.76-7.874 13.141-18.626 13.141-32.254v-4.543c0-13.629-4.381-24.38-13.141-32.254-8.761-7.875-20.24-11.812-34.438-11.812H59.813v92.675ZM245 324V98.908h56.174v25.413h8.155c3.322-9.076 8.834-15.732 16.535-19.968C333.565 100.118 342.55 98 352.819 98H380v50.827h-28.087c-14.497 0-26.426 3.858-35.789 11.573-9.362 7.714-14.043 19.589-14.043 35.624V324H245ZM494 331c-22.39 0-42.51-4.542-60.362-13.626-17.851-9.084-31.92-22.256-42.207-39.515C381.144 260.599 376 239.858 376 215.634v-7.268c0-24.224 5.144-44.965 15.431-62.225 10.287-17.259 24.356-30.431 42.207-39.515C451.49 97.542 471.61 93 494 93s42.51 4.542 60.362 13.626c17.851 9.084 31.92 22.256 42.207 39.515C606.856 163.401 612 184.142 612 208.366v7.268c0 24.224-5.144 44.965-15.431 62.225-10.287 17.259-24.356 30.431-42.207 39.515C536.51 326.458 516.39 331 494 331Zm0-50.87c17.549 0 32.072-5.678 43.569-17.033 11.498-11.355 17.246-27.63 17.246-48.826v-4.542c0-21.196-5.673-37.471-17.019-48.826C526.45 149.548 511.851 143.87 494 143.87c-17.549 0-32.072 5.678-43.569 17.033-11.498 11.355-17.246 27.63-17.246 48.826v4.542c0 21.196 5.748 37.471 17.246 48.826 11.497 11.355 26.02 17.033 43.569 17.033ZM634 324V98.635h56.301v24.536h8.173c3.935-7.573 10.442-14.161 19.523-19.765C727.078 97.802 739.034 95 753.866 95c16.043 0 28.907 3.105 38.594 9.314 9.686 6.21 17.102 14.313 22.248 24.309h8.172c5.146-9.693 12.411-17.72 21.794-24.081C854.058 98.181 867.376 95 884.63 95c13.923 0 26.561 2.953 37.912 8.86 11.351 5.907 20.432 14.843 27.242 26.808C956.595 142.633 960 157.702 960 175.877V324h-57.209V179.966c0-12.419-3.178-21.734-9.535-27.943-6.356-6.21-15.286-9.315-26.788-9.315-13.016 0-23.08 4.165-30.194 12.495-7.113 8.33-10.67 20.22-10.67 35.668V324h-57.208V179.966c0-12.419-3.179-21.734-9.535-27.943-6.357-6.21-15.286-9.315-26.789-9.315-13.015 0-23.08 4.165-30.193 12.495-7.113 8.33-10.67 20.22-10.67 35.668V324H634ZM992 415V99.349h56.3v27.212h8.17c5.15-8.769 13.17-16.554 24.06-23.357C1091.43 96.401 1107.02 93 1127.3 93c18.16 0 34.96 4.46 50.39 13.379 15.44 8.919 27.85 21.996 37.23 39.229 9.39 17.234 14.08 38.096 14.08 62.586v7.257c0 24.49-4.69 45.352-14.08 62.586-9.38 17.233-21.79 30.31-37.23 39.229-15.43 8.919-32.23 13.379-50.39 13.379-13.62 0-25.05-1.587-34.28-4.762s-16.65-7.256-22.25-12.245c-5.6-4.989-10.06-10.053-13.39-15.193h-8.17V415H992Zm118.05-134.242c17.85 0 32.61-5.669 44.26-17.007 11.66-11.338 17.48-27.892 17.48-49.661v-4.535c0-21.769-5.9-38.323-17.7-49.661-11.81-11.338-26.49-17.007-44.04-17.007-17.56 0-32.24 5.669-44.04 17.007-11.81 11.338-17.71 27.892-17.71 49.661v4.535c0 21.769 5.9 38.323 17.71 49.661 11.8 11.338 26.48 17.007 44.04 17.007ZM1330.09 324c-14.81 0-26.83-4.614-36.04-13.842-9.22-9.229-13.83-21.558-13.83-36.989V146.092H1224v-47.2h56.22V29h57.12v69.892H1399v47.2h-61.66v117.093c0 9.077 4.23 13.615 12.7 13.615h43.52V324h-63.47ZM1539.23 331c-39.41 0-70.63-10.988-93.67-32.964-23.04-21.975-34.56-53.423-34.56-94.344v-76.384c0-40.921 11.52-72.369 34.56-94.344C1468.6 10.988 1499.82 0 1539.23 0c39.1 0 69.34 10.685 90.71 32.054 21.37 21.37 32.06 50.696 32.06 87.979v2.728h-59.11v-4.547c0-18.793-5.23-34.252-15.69-46.376-10.46-12.125-26.45-18.187-47.97-18.187-21.22 0-37.89 6.517-50.02 19.551-12.12 13.034-18.19 30.766-18.19 53.196v78.204c0 22.127 6.07 39.783 18.19 52.969 12.13 13.185 28.8 19.778 50.02 19.778 21.52 0 37.51-6.138 47.97-18.414 10.46-12.276 15.69-27.659 15.69-46.149v-8.184H1662v6.365c0 37.283-10.69 66.609-32.06 87.979-21.37 21.369-51.61 32.054-90.71 32.054ZM1752.38 331c-16.03 0-30.39-2.801-43.1-8.403-12.7-5.601-22.75-13.777-30.16-24.526-7.42-10.75-11.12-23.846-11.12-39.289 0-15.442 3.7-28.387 11.12-38.834 7.41-10.446 17.69-18.319 30.84-23.618 13.16-5.299 28.21-7.948 45.14-7.948h61.7v-12.718c0-10.598-3.32-19.303-9.98-26.116-6.65-6.813-17.24-10.22-31.75-10.22-14.22 0-24.8 3.255-31.76 9.766-6.96 6.51-11.49 14.912-13.61 25.208l-52.63-17.714c3.63-11.507 9.46-22.029 17.47-31.567 8.01-9.538 18.75-17.26 32.21-23.164 13.46-5.905 29.87-8.857 49.22-8.857 29.64 0 53.08 7.419 70.32 22.256 17.24 14.837 25.86 36.336 25.86 64.496v84.027c0 9.084 4.23 13.626 12.7 13.626H1903v47.236h-38.11c-11.19 0-20.41-2.725-27.67-8.175-7.26-5.451-10.89-12.718-10.89-21.802v-.454h-8.62c-1.21 3.634-3.93 8.403-8.17 14.307-4.23 5.905-10.88 11.128-19.96 15.67-9.07 4.542-21.47 6.813-37.2 6.813Zm9.98-46.328c16.03 0 29.11-4.467 39.25-13.399 10.13-8.933 15.19-20.818 15.19-35.655v-4.542h-57.61c-10.59 0-18.91 2.271-24.95 6.813-6.05 4.542-9.08 10.901-9.08 19.077 0 8.175 3.18 14.837 9.53 19.984 6.35 5.148 15.58 7.722 27.67 7.722ZM2015.82 331c-21.82 0-41.59-4.542-59.32-13.626-17.73-9.084-31.74-22.256-42.05-39.515-10.3-17.26-15.45-38.153-15.45-62.68v-6.358c0-24.527 5.15-45.42 15.45-62.68 10.31-17.259 24.32-30.431 42.05-39.515C1974.23 97.542 1994 93 2015.82 93c21.51 0 40 3.785 55.45 11.355 15.46 7.57 27.96 17.941 37.5 31.113 9.55 13.171 15.84 28.084 18.87 44.738l-55.46 11.809c-1.21-9.084-3.94-17.259-8.18-24.526-4.24-7.268-10.23-13.021-17.95-17.26-7.73-4.239-17.35-6.359-28.87-6.359-11.51 0-21.89 2.498-31.13 7.495-9.25 4.996-16.52 12.414-21.82 22.255-5.31 9.841-7.96 21.877-7.96 36.109v4.542c0 14.232 2.65 26.268 7.96 36.109 5.3 9.841 12.57 17.259 21.82 22.255 9.24 4.997 19.62 7.495 31.13 7.495 17.28 0 30.38-4.467 39.32-13.399 8.94-8.933 14.62-20.666 17.05-35.2l55.45 13.171c-3.94 16.049-10.68 30.659-20.23 43.83-9.54 13.172-22.04 23.543-37.5 31.113-15.45 7.57-33.94 11.355-55.45 11.355ZM2146 324V6h57.22v120.386h8.18c2.42-4.846 6.21-9.692 11.35-14.537 5.15-4.846 12.04-8.859 20.67-12.039 8.63-3.18 19.6-4.77 32.93-4.77 17.56 0 32.92 4.013 46.09 12.039 13.18 8.025 23.39 19.08 30.66 33.162 7.27 14.083 10.9 30.513 10.9 49.29V324h-57.22V194.074c0-16.96-4.17-29.68-12.5-38.16-8.32-8.48-20.2-12.72-35.65-12.72-17.56 0-31.18 5.83-40.87 17.49-9.69 11.66-14.54 27.939-14.54 48.836V324H2146ZM2498.5 331c-22.4 0-42.15-4.769-59.25-14.307s-30.42-23.013-39.95-40.424c-9.53-17.411-14.3-37.925-14.3-61.544v-5.45c0-23.619 4.69-44.133 14.07-61.544 9.39-17.411 22.55-30.886 39.5-40.424S2475.19 93 2497.59 93c22.09 0 41.31 4.92 57.65 14.761 16.35 9.841 29.06 23.467 38.14 40.878 9.08 17.411 13.62 37.623 13.62 60.636v19.53h-163.89c.61 15.443 6.36 28.009 17.25 37.699 10.9 9.689 24.22 14.534 39.95 14.534 16.04 0 27.85-3.482 35.41-10.446 7.57-6.965 13.32-14.686 17.25-23.165l46.77 24.527c-4.24 7.873-10.37 16.427-18.39 25.662-8.02 9.236-18.69 17.109-32.01 23.619-13.31 6.51-30.26 9.765-50.84 9.765Zm-54.94-144.889h105.33c-1.21-13.021-6.43-23.467-15.66-31.34-9.23-7.873-21.26-11.809-36.09-11.809-15.44 0-27.7 3.936-36.78 11.809-9.08 7.873-14.68 18.319-16.8 31.34Z" style="fill:#fff;fill-rule:nonzero" transform="translate(624 80)"/></svg>